<?xml version="1.0" encoding="UTF-8" standalone="no"?>
<svg width="8px" height="10px" viewBox="0 0 8 10" version="1.1" xmlns="http://www.w3.org/2000/svg" xmlns:xlink="http://www.w3.org/1999/xlink">
    <title>bullet</title>
    <defs></defs>
    <g id="Page 1" stroke="none" stroke-width="1" fill="none" fill-rule="evenodd">
        <path d="M7.3672043,4.07783418 C7.65573621,4.33728274 7.8,4.64184822 7.8,4.99153976 C7.8,5.3412313 7.65573621,5.64579679 7.3672043,5.90524535 L3.22741935,9.62774958 C2.95143231,9.87591777 2.61586219,10 2.22069892,10 C1.82553566,10 1.48996554,9.87591777 1.21397849,9.62774958 C0.937991452,9.36830102 0.8,9.06373553 0.8,8.71404399 C0.8,8.36435245 0.937991452,8.05978697 1.21397849,7.80033841 L4.33763441,4.99153976 L1.21397849,2.18274112 C0.937991452,1.92329255 0.8,1.61872707 0.8,1.26903553 C0.8,0.919343993 0.937991452,0.620418613 1.21397849,0.372250423 C1.48996554,0.124082234 1.82553566,0 2.22069892,0 C2.61586219,0 2.95143231,0.124082234 3.22741935,0.372250423 L7.3672043,4.07783418 Z M7.3672043,4.07783418" id="s" fill="#999999"></path>
    </g>
</svg>